<mxfile host="app.diagrams.net" modified="2020-11-22T10:46:54.187Z" agent="5.0 (Windows NT 10.0; Win64; x64) AppleWebKit/537.36 (KHTML, like Gecko) Chrome/86.0.4240.198 Safari/537.36" etag="n4bVhTGwFsul59gspRKb" version="13.10.0" type="github">
  <diagram id="3495FImP_wOGPSTc350V" name="Page-1">
    <mxGraphModel dx="942" dy="614" grid="1" gridSize="10" guides="1" tooltips="1" connect="1" arrows="1" fold="1" page="1" pageScale="1" pageWidth="827" pageHeight="1169" math="0" shadow="0">
      <root>
        <mxCell id="0" />
        <mxCell id="1" parent="0" />
        <mxCell id="VCZH3JBnMxwAqkOE0vFx-4" style="edgeStyle=orthogonalEdgeStyle;rounded=0;orthogonalLoop=1;jettySize=auto;html=1;fontSize=38;strokeWidth=2;" parent="1" source="EsuabI6W_LbRyvDhwPo9-5" target="EsuabI6W_LbRyvDhwPo9-10" edge="1">
          <mxGeometry relative="1" as="geometry" />
        </mxCell>
        <mxCell id="EsuabI6W_LbRyvDhwPo9-5" value="Фрилансеры  - услуги" style="swimlane;fontStyle=1;align=center;verticalAlign=top;childLayout=stackLayout;horizontal=1;startSize=30;horizontalStack=0;resizeParent=1;resizeParentMax=0;resizeLast=0;collapsible=1;marginBottom=0;" parent="1" vertex="1">
          <mxGeometry x="160" y="150" width="210" height="110" as="geometry" />
        </mxCell>
        <mxCell id="EsuabI6W_LbRyvDhwPo9-9" value="ID_фрилансера        &lt;pk&gt;&#xa;" style="text;strokeColor=none;fillColor=none;align=left;verticalAlign=top;spacingLeft=4;spacingRight=4;overflow=hidden;rotatable=0;points=[[0,0.5],[1,0.5]];portConstraint=eastwest;fontStyle=4;spacing=2;spacingTop=0;" parent="EsuabI6W_LbRyvDhwPo9-5" vertex="1">
          <mxGeometry y="30" width="210" height="30" as="geometry" />
        </mxCell>
        <mxCell id="EsuabI6W_LbRyvDhwPo9-6" value="ID_Team_Lead" style="text;strokeColor=none;fillColor=none;align=left;verticalAlign=top;spacingLeft=6;spacingRight=4;overflow=hidden;rotatable=0;points=[[0,0.5],[1,0.5]];portConstraint=eastwest;fontStyle=0;spacing=0;spacingTop=-10;" parent="EsuabI6W_LbRyvDhwPo9-5" vertex="1">
          <mxGeometry y="60" width="210" height="10" as="geometry" />
        </mxCell>
        <mxCell id="EsuabI6W_LbRyvDhwPo9-7" value="" style="line;strokeWidth=1;fillColor=none;align=left;verticalAlign=middle;spacingTop=-1;spacingLeft=3;spacingRight=3;rotatable=0;labelPosition=right;points=[];portConstraint=eastwest;" parent="EsuabI6W_LbRyvDhwPo9-5" vertex="1">
          <mxGeometry y="70" width="210" height="8" as="geometry" />
        </mxCell>
        <mxCell id="EsuabI6W_LbRyvDhwPo9-8" value="ID_разработчика        &lt;pk&gt;&#xa;" style="text;strokeColor=none;fillColor=none;align=left;verticalAlign=top;spacingLeft=4;spacingRight=4;overflow=hidden;rotatable=0;points=[[0,0.5],[1,0.5]];portConstraint=eastwest;" parent="EsuabI6W_LbRyvDhwPo9-5" vertex="1">
          <mxGeometry y="78" width="210" height="32" as="geometry" />
        </mxCell>
        <mxCell id="EsuabI6W_LbRyvDhwPo9-10" value="Разработчики - Проекты " style="swimlane;fontStyle=1;align=center;verticalAlign=top;childLayout=stackLayout;horizontal=1;startSize=30;horizontalStack=0;resizeParent=1;resizeParentMax=0;resizeLast=0;collapsible=1;marginBottom=0;" parent="1" vertex="1">
          <mxGeometry x="480" y="145" width="260" height="120" as="geometry" />
        </mxCell>
        <mxCell id="VCZH3JBnMxwAqkOE0vFx-3" value="ID_разработчика        &lt;pk&gt;&#xa;" style="text;strokeColor=none;fillColor=none;align=left;verticalAlign=top;spacingLeft=4;spacingRight=4;overflow=hidden;rotatable=0;points=[[0,0.5],[1,0.5]];portConstraint=eastwest;fontStyle=4;spacing=2;spacingTop=0;" parent="EsuabI6W_LbRyvDhwPo9-10" vertex="1">
          <mxGeometry y="30" width="260" height="30" as="geometry" />
        </mxCell>
        <mxCell id="EsuabI6W_LbRyvDhwPo9-12" value="Проекты&#xa;" style="text;strokeColor=none;fillColor=none;align=left;verticalAlign=top;spacingLeft=6;spacingRight=4;overflow=hidden;rotatable=0;points=[[0,0.5],[1,0.5]];portConstraint=eastwest;fontStyle=0;spacing=0;spacingTop=-9;" parent="EsuabI6W_LbRyvDhwPo9-10" vertex="1">
          <mxGeometry y="60" width="260" height="20" as="geometry" />
        </mxCell>
        <mxCell id="EsuabI6W_LbRyvDhwPo9-13" value="" style="line;strokeWidth=1;fillColor=none;align=left;verticalAlign=middle;spacingTop=-1;spacingLeft=3;spacingRight=3;rotatable=0;labelPosition=right;points=[];portConstraint=eastwest;" parent="EsuabI6W_LbRyvDhwPo9-10" vertex="1">
          <mxGeometry y="80" width="260" height="8" as="geometry" />
        </mxCell>
        <mxCell id="EsuabI6W_LbRyvDhwPo9-14" value="ID_разработчика            &lt;pk&gt;&#xa;" style="text;strokeColor=none;fillColor=none;align=left;verticalAlign=top;spacingLeft=4;spacingRight=4;overflow=hidden;rotatable=0;points=[[0,0.5],[1,0.5]];portConstraint=eastwest;" parent="EsuabI6W_LbRyvDhwPo9-10" vertex="1">
          <mxGeometry y="88" width="260" height="32" as="geometry" />
        </mxCell>
      </root>
    </mxGraphModel>
  </diagram>
</mxfile>
